<?xml version="1.0" encoding="UTF-8"?>
<svg version="1.1" viewBox="0 0 2000 1500" width="2000" height="1500" xmlns="http://www.w3.org/2000/svg">
<path transform="translate(0)" d="m0 0h2e3v1500h-2e3z" fill="#E5492E"/>
<path transform="translate(912,260)" d="m0 0h44l30 2 30 4 28 6 24 7 32 13 28 14 21 13 19 14 15 13 25 25 18 22 12 17 12 21 10 21 6 16 5 21 4 27 3 36v12l-2 27-4 26-6 26-9 26-9 20-10 18-12 17-11 13-11 12-11 11-8 7-13 11-19 14-19 12-18 10-12 6h-2l4 4 11 7 13 12 7 7 10 14 11 18 16 29 26 52 13 28 15 32 16 36 16 33 8 12 8 10 10 9 10 6 14 4h20l14-3 13-5 14-8 10-8 28-24 13-10 2-1-1 14-5 24-6 20-9 21-10 17-9 12-11 12-12 12-17 13-15 9-17 7-16 4-8 1h-20l-18-3-17-6-16-9-11-9-10-9-7-7-11-14-15-25-16-29-8-16-13-27-13-28-19-40-16-34-18-38-11-21-12-19-14-19-14-15-9-8-10-7-16-8-11-1-27-1-26-3-24-5-20-6-21-9-18-10-17-12-4-3v283l3 7 8 14 9 12 9 10 11 10 13 9 14 8 20 8 17 5 5 1v1h-336l4-2 20-6 18-8 15-9 10-8 10-9 8-8 10-13 9-14 3-5 1-4v-676l-3-10-5-5-8-5-12-5-19-5-38-8-25-4 3-3 29-12 40-15 44-16 54-19 41-14 36-10 26-6 30-5z" fill="#fff"/>
<path transform="translate(919,321)" d="m0 0h31l29 3 23 5 21 7 17 8 16 10 14 11 10 9 8 7 7 8 12 15 11 18 8 16 8 19 7 23 5 23 3 22 1 13v42l-2 27-4 27-6 25-8 24-11 23-12 18-9 11-14 14-15 11-14 8-17 8-18 6-24 5-25 2h-28l-22-3-21-5-21-8-23-12-12-9-14-12-9-10-10-14-6-10v-306l3-17 5-12 8-11 12-12 9-6 24-10 20-6 22-4z" fill="#E5492E"/>
</svg>
